<svg xmlns="http://www.w3.org/2000/svg" viewBox="0 0 40 40" width="40" height="40">
  <defs>
    <linearGradient id="whiteGradient" x1="0%" y1="0%" x2="100%" y2="100%">
      <stop offset="0%" style="stop-color:#FFFFFF;stop-opacity:1" />
      <stop offset="100%" style="stop-color:#E8E8E8;stop-opacity:1" />
    </linearGradient>
  </defs>
  
  <!-- Chicken silhouette - white version -->
  <g transform="translate(4, 4)">
    <ellipse cx="12" cy="14" rx="8" ry="6" fill="url(#whiteGradient)"/>
    <circle cx="19" cy="9" r="4.5" fill="url(#whiteGradient)"/>
    <circle cx="20.5" cy="8" r="1" fill="#2E7D32"/>
    <circle cx="20.8" cy="8" r="0.5" fill="#1a1a1a"/>
    <polygon points="23.5,9 26,10 23.5,11" fill="#FFD54F"/>
    <path d="M17 5 Q18 2 19 5 Q20 3 21 5 Q22 3 23 5" fill="#FFD54F"/>
    <path d="M10 13 Q7 11 6 14 Q4 16 7 17 Q9 18 10 16" fill="url(#whiteGradient)" opacity="0.6"/>
    <path d="M4 11 Q1 7 3 4" stroke="url(#whiteGradient)" stroke-width="1.8" fill="none" stroke-linecap="round"/>
    <path d="M5 13 Q2 10 4 6" stroke="url(#whiteGradient)" stroke-width="1.5" fill="none" stroke-linecap="round"/>
    <line x1="10" y1="20" x2="9" y2="24" stroke="#FFD54F" stroke-width="1.5" stroke-linecap="round"/>
    <line x1="12" y1="20" x2="11" y2="24" stroke="#FFD54F" stroke-width="1.5" stroke-linecap="round"/>
  </g>
</svg>